{"title":"Selena Gomez ft.Asap Rocky - Good For You (Explicit) 2015","uid":12274729,"size":112218503,"categoryP":"video","categoryS":"music_videos","magnet":"?xt=urn:btih:d20ec81baddfca860b3d0a2e8dbdcea9d604520b&amp;dn=Selena+Gomez+ft.Asap+Rocky+-+Good+For+You+%28Explicit%29+2015&amp;tr=udp%3A%2F%2Ftracker.openbittorrent.com%3A80&amp;tr=udp%3A%2F%2Fopen.demonii.com%3A1337&amp;tr=udp%3A%2F%2Ftracker.coppersurfer.tk%3A6969&amp;tr=udp%3A%2F%2Fexodus.desync.com%3A6969","seeders":0,"leechers":1,"uploader":"MeRaDil","files":1,"time":1440338604,"description":"SELENA GOMEZ ft.ASAP ROCKY - GOOD FOR YOU\n\n &lt;a href=&quot;\nhttp://ultraimg.com/images/SelenaGomez-2.png&quot; rel=&quot;nofollow&quot; target=&quot;_NEW&quot;&gt;\nhttp://ultraimg.com/images/SelenaGomez-2.png&lt;/a&gt;\n &lt;a href=&quot;\nhttp://ultraimg.com/images/SelenaGomez-3.png&quot; rel=&quot;nofollow&quot; target=&quot;_NEW&quot;&gt;\nhttp://ultraimg.com/images/SelenaGomez-3.png&lt;/a&gt;\n &lt;a href=&quot;\nhttp://ultraimg.com/images/SelenaGomez-4.png&quot; rel=&quot;nofollow&quot; target=&quot;_NEW&quot;&gt;\nhttp://ultraimg.com/images/SelenaGomez-4.png&lt;/a&gt;\n\n\nGeneral\nSelena Gomez ft. Asap Rocky - Good For You (Explicit)\nFormat                                   : MPEG-4\nFormat profile                           : Base Media\nCodec ID                                 : isom\nFile size                                : 107 MiB\nDuration                                 : 3mn 45s\nOverall bit rate                         : 3 983 Kbps\nMusicVid name                            : Good For You\nAlbum                                    : Revival\nPerformer                                : Selena Gomez ft. Asap Rocky\nGenre                                    : Pop\nContentType                              : Music Video\nRecorded date                            : 2015\nCover                                    : Yes\nRating                                   : Explicit\nMake                                     : MeRaDil\nArtist url                               : http://selenagomez.com/\nRelease date                             : USA . august 19 . 2015\n\nVideo\nID                                       : 1\nFormat                                   : AVC\nFormat/Info                              : Advanced Video Codec\nFormat profile                           : &lt;a class=&quot;__cf_email__&quot; href=&quot;/cdn-cgi/l/email-protection&quot; data-cfemail=&quot;99d1f0fef1d9d5adb7a9&quot;&gt;[email&amp;#160;protected]&lt;/a&gt;&lt;script data-cfhash='f9e31' type=&quot;text/javascript&quot;&gt;\n/* &lt;![CDATA[ */!function(){try{var t=&quot;currentScript&quot;in document?document.currentScript:function(){for(var t=document.getElementsByTagName(&quot;script&quot;),e=t.length;e--;)if(t[e].getAttribute(&quot;data-cfhash&quot;))return t[e]}();if(t&amp;&amp;t.previousSibling){var e,r,n,i,c=t.previousSibling,a=c.getAttribute(&quot;data-cfemail&quot;);if(a){for(e=&quot;&quot;,r=parseInt(a.substr(0,2),16),n=2;a.length-n;n+=2)i=parseInt(a.substr(n,2),16)^r,e+=String.fromCharCode(i);e=document.createTextNode(e),c.parentNode.replaceChild(e,c)}t.parentNode.removeChild(t);}}catch(u){}}()/* ]]&gt; */&lt;/script&gt;\nFormat settings, CABAC                   : Yes\nFormat settings, ReFrames                : 2 frames\nCodec ID                                 : avc1\nCodec ID/Info                            : Advanced Video Coding\nDuration                                 : 3mn 45s\nBit rate                                 : 3 710 Kbps\nWidth                                    : 1 920 pixels\nHeight                                   : 1 080 pixels\nDisplay aspect ratio                     : 16:9\nFrame rate mode                          : Variable\nFrame rate                               : 23.976 fps\nMinimum frame rate                       : 23.974 fps\nMaximum frame rate                       : 23.981 fps\nColor space                              : YUV\nChroma subsampling                       : 4:2:0\nBit depth                                : 8 bits\nScan type                                : Progressive\nBits/(Pixel*Frame)                       : 0.075\nStream size                              : 99.7 MiB (93%)\n\nAudio\nID                                       : 2\nFormat                                   : AAC\nFormat/Info                              : Advanced Audio Codec\nFormat profile                           : LC\nCodec ID                                 : 40\nDuration                                 : 3mn 45s\nBit rate mode                            : Constant\nBit rate                                 : 256 Kbps\nChannel(s)                               : 2 channels\nChannel positions                        : Front: L R\nSampling rate                            : 44.1 KHz\nCompression mode                         : Lossy\nStream size                              : 6.88 MiB (6%)\n &lt;a href=&quot;\nhttps://thepiratebay.se/user/MeRaDil&quot; rel=&quot;nofollow&quot; target=&quot;_NEW&quot;&gt;\nhttps://thepiratebay.se/user/MeRaDil&lt;/a&gt;\n\nSelena Gomez * Pop * Explicit * Promo","torrent":{"xt":"urn:btih:d20ec81baddfca860b3d0a2e8dbdcea9d604520b","amp;dn":"Selena+Gomez+ft.Asap+Rocky+-+Good+For+You+%28Explicit%29+2015","amp;tr":["udp%3A%2F%2Ftracker.openbittorrent.com%3A80","udp%3A%2F%2Fopen.demonii.com%3A1337","udp%3A%2F%2Ftracker.coppersurfer.tk%3A6969","udp%3A%2F%2Fexodus.desync.com%3A6969"],"infoHash":"d20ec81baddfca860b3d0a2e8dbdcea9d604520b","infoHashBuffer":{"type":"Buffer","data":[210,14,200,27,173,223,202,134,11,61,10,46,141,189,206,169,214,4,82,11]},"announce":[],"urlList":[]}}